<?xml version="1.0" standalone="no"?>
<!DOCTYPE svg PUBLIC "-//W3C//DTD SVG 20010904//EN"
 "http://www.w3.org/TR/2001/REC-SVG-20010904/DTD/svg10.dtd">
<svg version="1.0" xmlns="http://www.w3.org/2000/svg"
 width="225.000000pt" height="225.000000pt" viewBox="0 0 225.000000 225.000000"
 preserveAspectRatio="xMidYMid meet">

<g transform="translate(0.000000,225.000000) scale(0.100000,-0.100000)"
fill="#000000" stroke="none">
<path d="M480 1657 c0 -42 2 -44 38 -56 37 -11 89 -52 112 -87 11 -18 11 -18
5 1 -3 11 -9 32 -12 47 -9 46 -101 138 -138 138 -3 0 -5 -20 -5 -43z m57 -23
c-3 -3 -12 -4 -19 -1 -8 3 -5 6 6 6 11 1 17 -2 13 -5z m26 -19 c-3 -9 -8 -14
-10 -11 -3 3 -2 9 2 15 9 16 15 13 8 -4z"/>
<path d="M1210 1436 c0 -9 5 -16 10 -16 6 0 10 4 10 9 0 6 -4 13 -10 16 -5 3
-10 -1 -10 -9z"/>
<path d="M1410 1444 c0 -3 6 -20 14 -37 36 -79 66 -158 66 -175 0 -11 8 -18
20 -19 20 -2 31 16 68 110 10 27 22 49 26 50 9 2 66 -131 63 -147 -1 -6 10
-12 26 -14 19 -2 27 1 27 12 0 16 62 178 80 209 9 15 6 17 -23 17 -24 0 -33
-5 -34 -17 -2 -32 -38 -123 -48 -123 -10 0 -55 106 -55 129 0 6 -15 11 -32 11
-32 0 -34 -2 -57 -75 -13 -41 -27 -75 -31 -75 -3 0 -20 34 -35 75 -24 63 -33
75 -52 75 -13 0 -23 -3 -23 -6z"/>
<path d="M1956 1400 c20 -27 40 -53 45 -56 5 -3 -13 -34 -42 -70 l-51 -64 34
0 c28 0 37 7 58 40 13 22 28 40 32 40 13 0 57 -53 58 -67 0 -8 15 -13 41 -13
l41 0 -44 53 c-65 76 -64 71 -12 132 l46 55 -33 0 c-28 0 -38 -7 -57 -35 -12
-19 -26 -35 -31 -35 -13 0 -52 56 -44 64 3 3 -12 6 -35 6 l-42 0 36 -50z"/>
<path d="M1185 1420 c4 -14 2 -20 -8 -20 -19 0 -26 -20 -16 -45 8 -18 8 -17 6
5 -1 19 3 26 21 28 16 3 22 8 18 19 -3 8 -6 19 -6 24 0 5 -5 9 -11 9 -6 0 -8
-9 -4 -20z"/>
<path d="M1225 1391 c-3 -12 0 -33 7 -49 15 -29 13 -56 -3 -46 -5 3 -9 0 -9
-5 0 -6 12 -11 26 -11 17 0 23 4 18 13 -4 7 -3 8 2 4 5 -5 9 -16 10 -25 3 -50
4 -52 34 -52 l30 0 -30 49 c-17 26 -30 51 -30 54 0 3 -11 24 -24 47 -21 38
-25 40 -31 21z"/>
<path d="M1116 1305 c-3 -9 -6 -22 -5 -28 0 -7 5 -1 10 12 5 13 8 26 5 28 -2
2 -6 -3 -10 -12z"/>
<path d="M1180 1290 c-12 -7 -10 -9 8 -7 12 0 22 5 22 9 0 11 -12 10 -30 -2z"/>
<path d="M481 1219 c-1 -67 -4 -81 -30 -116 -37 -50 -88 -83 -158 -99 -74 -17
-131 6 -154 61 -6 17 -8 17 -8 3 -1 -24 -13 -23 -31 2 -8 11 -20 20 -27 20 -7
0 -13 3 -14 8 -1 4 -3 29 -5 56 -6 70 -14 70 -14 0 0 -116 62 -219 164 -271
105 -54 262 -27 343 58 61 65 97 175 76 233 -6 17 -9 13 -14 -19 l-6 -40 -12
33 c-12 29 -15 31 -26 16 -11 -16 -12 -16 -18 1 -4 10 -13 15 -22 11 -10 -3
-16 2 -19 17 -21 102 -24 105 -25 26z"/>
<path d="M820 1151 c0 -30 -57 -37 -79 -9 -23 28 -44 16 -29 -17 12 -27 38
-41 48 -25 8 14 92 8 97 -7 3 -7 -9 -13 -29 -15 l-33 -3 0 -79 0 -79 93 -1 92
-1 0 82 0 83 -39 0 c-22 0 -42 4 -46 9 -7 13 29 23 67 19 19 -2 33 2 35 10 3
7 -5 12 -21 12 -19 0 -26 5 -26 20 0 11 -4 20 -8 20 -5 0 -17 -9 -27 -20 -10
-11 -25 -20 -34 -20 -9 0 -22 9 -29 20 -15 25 -32 26 -32 1z m125 -101 c4 -6
-17 -10 -55 -10 -38 0 -59 4 -55 10 3 6 28 10 55 10 27 0 52 -4 55 -10z m-5
-50 c0 -5 -25 -10 -55 -10 -30 0 -55 5 -55 10 0 6 25 10 55 10 30 0 55 -4 55
-10z m0 -45 c0 -5 -25 -11 -55 -13 -45 -2 -55 0 -55 13 0 13 10 15 55 13 30
-2 55 -7 55 -13z"/>
<path d="M1700 1129 l0 -40 -29 20 c-50 36 -70 23 -28 -18 15 -13 30 -19 40
-15 14 5 17 -1 17 -44 0 -54 -9 -62 -72 -62 -21 0 -28 5 -28 20 0 11 -9 25
-20 32 -11 7 -20 16 -20 20 0 17 30 7 54 -17 24 -24 56 -34 56 -17 0 12 -44
52 -58 52 -7 0 -12 4 -12 9 0 5 -10 11 -22 13 -34 5 -33 27 1 39 24 8 29 14
21 24 -7 8 -24 10 -57 4 -27 -4 -54 -8 -60 -8 -22 -1 -14 -19 9 -23 30 -4 36
-35 8 -40 -27 -4 -27 -22 0 -26 11 -2 20 -5 20 -6 0 -2 -11 -25 -26 -51 -29
-56 -25 -96 6 -55 l20 25 0 -52 c0 -40 4 -53 15 -53 8 0 15 3 16 8 0 4 1 33 2
64 3 66 14 85 23 39 l7 -33 56 4 56 3 3 -42 c4 -58 32 -61 32 -4 0 37 11 55
34 56 21 0 15 24 -6 27 -22 3 -23 7 -26 96 -2 73 -6 92 -17 92 -11 0 -15 -12
-15 -41z"/>
<path d="M2061 1147 c-7 -19 -19 -26 -48 -29 -21 -3 -45 -7 -53 -9 -10 -3 -16
5 -18 24 -4 35 -32 37 -32 2 0 -18 -5 -25 -20 -25 -11 0 -20 -6 -20 -14 0 -7
9 -16 20 -19 30 -8 26 -51 -5 -65 -14 -6 -25 -16 -25 -22 0 -5 11 -10 25 -10
22 0 25 -4 25 -39 0 -31 -4 -40 -21 -44 -24 -6 -21 -30 5 -35 32 -7 46 17 46
78 0 50 3 58 25 70 14 7 26 11 28 9 16 -19 46 -92 42 -99 -3 -5 -21 -14 -40
-20 -35 -12 -49 -40 -19 -40 9 0 34 10 55 22 l39 22 39 -22 c40 -23 74 -21 65
3 -3 8 -18 17 -34 20 -29 6 -46 30 -29 40 15 10 50 85 44 95 -3 6 -19 10 -36
10 -22 0 -29 5 -29 20 0 17 7 20 40 20 29 0 40 4 40 15 0 11 -11 15 -40 15
-33 0 -40 3 -40 19 0 30 -19 35 -29 8z m-6 -77 c0 -10 -14 -17 -40 -21 -22 -3
-47 -8 -55 -10 -9 -2 -16 4 -18 18 -4 24 17 32 78 29 24 -1 35 -6 35 -16z m46
-82 c-26 -42 -35 -44 -49 -13 -18 40 -15 45 29 45 l41 0 -21 -32z"/>
<path d="M1107 1143 c-12 -11 -8 -178 4 -190 9 -9 8 -18 -5 -37 -20 -31 -21
-56 -2 -56 15 0 43 57 38 78 -2 8 14 12 57 12 39 0 61 4 64 13 3 9 7 9 18 0
13 -11 19 -13 37 -13 4 0 14 -15 20 -34 16 -45 40 -65 52 -46 6 10 1 25 -15
46 -24 31 -24 32 -5 45 21 15 31 59 15 65 -6 2 -15 -6 -20 -18 -6 -14 -20 -24
-37 -26 -26 -3 -28 -1 -28 34 l0 37 40 -7 40 -6 0 55 0 55 -133 0 c-74 0 -137
-3 -140 -7z m71 -31 c2 -7 -5 -16 -16 -19 -17 -4 -21 -12 -19 -46 1 -29 6 -41
19 -45 27 -7 22 -22 -7 -22 -24 0 -25 2 -25 68 0 38 3 72 7 76 11 10 36 3 41
-12z m86 -4 c8 -30 8 -92 0 -112 -7 -19 -58 -22 -51 -3 2 6 10 12 18 12 10 0
15 13 16 43 1 29 -3 42 -12 42 -17 0 -28 17 -20 30 11 18 43 10 49 -12z m84
-5 c3 -19 -1 -23 -22 -23 -29 0 -39 11 -30 35 10 24 48 15 52 -12z m-130 -50
c2 -8 -6 -13 -22 -13 -25 0 -33 10 -19 24 10 10 36 3 41 -11z"/>
<path d="M132 1110 c0 -14 2 -19 5 -12 2 6 2 18 0 25 -3 6 -5 1 -5 -13z"/>
<path d="M695 1051 c-3 -6 4 -15 15 -21 29 -15 28 -85 -2 -117 -16 -18 -19
-26 -10 -35 9 -9 16 -8 29 4 16 14 20 15 37 2 29 -21 236 -20 236 1 0 12 -18
15 -101 15 -134 0 -139 3 -139 90 l0 70 -29 0 c-17 0 -32 -4 -36 -9z"/>
<path d="M1180 928 c0 -33 14 -58 31 -58 23 0 23 3 4 40 -16 31 -35 40 -35 18z"/>
<path d="M1250 932 c0 -18 26 -62 37 -62 21 0 25 20 9 45 -15 24 -46 35 -46
17z"/>
</g>
</svg>
